<?xml version="1.0" encoding="UTF-8"?>
<svg version="1.1" viewBox="0 0 24 24" 
  xmlns="http://www.w3.org/2000/svg" 
  xmlns:xlink="http://www.w3.org/1999/xlink">
  <g fill="#000">
    <path d="M7.5,10.5h-1l-4.37114e-08,1.77636e-15c-0.552285,2.41411e-08 -1,0.447715 -1,1c2.41411e-08,0.552285 0.447715,1 1,1h1l-4.37114e-08,-1.77636e-15c0.552285,2.41411e-08 1,-0.447715 1,-1c2.41411e-08,-0.552285 -0.447715,-1 -1,-1Z"></path>
    <path d="M12.5,10.5h-1l-4.37114e-08,1.77636e-15c-0.552285,2.41411e-08 -1,0.447715 -1,1c2.41411e-08,0.552285 0.447715,1 1,1h1l-4.37114e-08,-1.77636e-15c0.552285,2.41411e-08 1,-0.447715 1,-1c2.41411e-08,-0.552285 -0.447715,-1 -1,-1Z"></path>
    <path d="M17.5,10.5h-1l-4.37114e-08,1.77636e-15c-0.552285,2.41411e-08 -1,0.447715 -1,1c2.41411e-08,0.552285 0.447715,1 1,1h1l-4.37114e-08,-1.77636e-15c0.552285,2.41411e-08 1,-0.447715 1,-1c2.41411e-08,-0.552285 -0.447715,-1 -1,-1Z"></path>
    <path d="M7.5,14.5h-1l-4.37114e-08,1.77636e-15c-0.552285,2.41411e-08 -1,0.447715 -1,1c2.41411e-08,0.552285 0.447715,1 1,1h1h-4.37114e-08c0.552285,2.41411e-08 1,-0.447715 1,-1c2.41411e-08,-0.552285 -0.447715,-1 -1,-1Z"></path>
    <path d="M12.5,14.5h-1l-4.37114e-08,1.77636e-15c-0.552285,2.41411e-08 -1,0.447715 -1,1c2.41411e-08,0.552285 0.447715,1 1,1h1h-4.37114e-08c0.552285,2.41411e-08 1,-0.447715 1,-1c2.41411e-08,-0.552285 -0.447715,-1 -1,-1Z"></path>
    <path d="M17.5,14.5h-1l-4.37114e-08,1.77636e-15c-0.552285,2.41411e-08 -1,0.447715 -1,1c2.41411e-08,0.552285 0.447715,1 1,1h1h-4.37114e-08c0.552285,2.41411e-08 1,-0.447715 1,-1c2.41411e-08,-0.552285 -0.447715,-1 -1,-1Z"></path>
    <path d="M7.5,18.5h-1h-4.37114e-08c-0.552285,2.41411e-08 -1,0.447715 -1,1c2.41411e-08,0.552285 0.447715,1 1,1h1h-4.37114e-08c0.552285,2.41411e-08 1,-0.447715 1,-1c2.41411e-08,-0.552285 -0.447715,-1 -1,-1Z"></path>
    <path d="M12.5,18.5h-1h-4.37114e-08c-0.552285,2.41411e-08 -1,0.447715 -1,1c2.41411e-08,0.552285 0.447715,1 1,1h1h-4.37114e-08c0.552285,2.41411e-08 1,-0.447715 1,-1c2.41411e-08,-0.552285 -0.447715,-1 -1,-1Z"></path>
    <path d="M17.5,18.5h-1h-4.37114e-08c-0.552285,2.41411e-08 -1,0.447715 -1,1c2.41411e-08,0.552285 0.447715,1 1,1h1h-4.37114e-08c0.552285,2.41411e-08 1,-0.447715 1,-1c2.41411e-08,-0.552285 -0.447715,-1 -1,-1Z"></path>
    <path d="M21.5,3h-2.75h-1.09278e-08c-0.138071,-6.03528e-09 -0.25,-0.111929 -0.25,-0.25c0,0 0,0 0,0v-1.75v0c0,-0.552285 -0.447715,-1 -1,-1c-0.552285,0 -1,0.447715 -1,1v4.75v0c0,0.414214 -0.335786,0.75 -0.75,0.75c-0.414214,0 -0.75,-0.335786 -0.75,-0.75v-2.25v0c0,-0.276142 -0.223858,-0.5 -0.5,-0.5h-6.25l-1.41802e-08,1.13687e-13c-0.137682,1.09365e-06 -0.249449,-0.11132 -0.25,-0.249v-1.751l2.83595e-11,-7.53127e-06c0,-0.552285 -0.447715,-1 -1,-1c-0.552285,0 -1,0.447715 -1,1c0,5.02084e-06 3.78133e-11,1.00417e-05 1.1344e-10,1.50625e-05v4.75v0c0,0.414214 -0.335786,0.75 -0.75,0.75c-0.414214,0 -0.75,-0.335786 -0.75,-0.75v-2.25001v0c0,-0.276142 -0.223858,-0.5 -0.5,-0.5c0,0 -8.50804e-11,0 -8.50804e-11,0h-1.5h-8.74228e-08c-1.10457,4.82823e-08 -2,0.895431 -2,2c0,0 0,0 0,0v17l2.13163e-14,-3.01992e-07c-1.66785e-07,1.10457 0.89543,2 2,2h19h-8.74228e-08c1.10457,4.82823e-08 2,-0.89543 2,-2v-17l-3.55271e-15,-2.13163e-14c0,-1.10457 -0.89543,-2 -2,-2Zm0,18.5v0c0,0.276142 -0.223858,0.5 -0.5,0.5h-18h-2.18557e-08c-0.276142,-1.20706e-08 -0.5,-0.223858 -0.5,-0.5c0,0 0,0 0,0v-12l7.10543e-15,7.54979e-08c-4.16963e-08,-0.276142 0.223858,-0.5 0.5,-0.5h18h-2.18557e-08c0.276142,-1.20706e-08 0.5,0.223858 0.5,0.5Z"></path>
  </g>
</svg>